<svg id="dollar" xmlns="http://www.w3.org/2000/svg" width="46.895" height="25.646" viewBox="0 0 46.895 25.646">
  <defs>
    <style>
      .cls-1 {
        fill: #fff;
      }
    </style>
  </defs>
  <path id="Path_42" data-name="Path 42" class="cls-1" d="M0,0V25.646H46.9V0ZM44.147,5.259a4.141,4.141,0,0,1-2.512-2.512h2.512ZM38.79,22.9H8.105a6.89,6.89,0,0,0-5.357-5.357V8.105A6.89,6.89,0,0,0,8.105,2.748H38.79a6.89,6.89,0,0,0,5.357,5.357v9.436A6.889,6.889,0,0,0,38.79,22.9ZM5.259,2.748A4.141,4.141,0,0,1,2.748,5.259V2.748ZM2.748,20.386A4.141,4.141,0,0,1,5.259,22.9H2.748ZM41.636,22.9a4.141,4.141,0,0,1,2.512-2.512V22.9Zm0,0"/>
  <path id="Path_43" data-name="Path 43" class="cls-1" d="M201.5,60a4.991,4.991,0,0,0-4.044,2.336,9.309,9.309,0,0,0,0,9.984,4.669,4.669,0,0,0,8.088,0,9.309,9.309,0,0,0,0-9.984A4.991,4.991,0,0,0,201.5,60Zm0,11.907c-1.464,0-2.748-2.14-2.748-4.58s1.284-4.58,2.748-4.58,2.748,2.14,2.748,4.58S202.959,71.907,201.5,71.907Zm0,0" transform="translate(-178.048 -54.504)"/>
</svg>
