<svg xmlns="http://www.w3.org/2000/svg" width="31.173" height="41.798" viewBox="0 0 31.173 41.798">
  <defs>
    <style>
      .cls-1 {
        fill: #fff;
      }
    </style>
  </defs>
  <g id="location-pin" transform="translate(-37.747)">
    <path id="Path_40" data-name="Path 40" class="cls-1" d="M53.334,0A15.607,15.607,0,0,0,37.747,15.593c0,12.81,14.035,25.319,14.633,25.845a1.443,1.443,0,0,0,1.908,0c.6-.526,14.633-13.034,14.633-25.845A15.607,15.607,0,0,0,53.334,0Zm0,38.376c-3.1-3.007-12.7-13.092-12.7-22.784a12.7,12.7,0,1,1,25.4,0C66.034,25.284,56.437,35.369,53.334,38.376Z"/>
    <path id="Path_41" data-name="Path 41" class="cls-1" d="M104.442,59.183a7.264,7.264,0,1,0,7.216,7.264A7.248,7.248,0,0,0,104.442,59.183Zm0,11.641a4.378,4.378,0,1,1,4.33-4.377A4.359,4.359,0,0,1,104.442,70.824Z" transform="translate(-51.108 -50.854)"/>
  </g>
</svg>
