<svg xmlns="http://www.w3.org/2000/svg" width="137.02" height="35.88" viewBox="0 0 137.02 35.88">
  <path id="Path_36" data-name="Path 36" d="M3.432,0h7.384V-34.684H3.432ZM31.616.624A16.1,16.1,0,0,0,46.384-7.9L40.04-10.972a9.4,9.4,0,0,1-8.424,5.044c-6.032,0-10.608-4.836-10.608-11.388S25.584-28.7,31.616-28.7A9.5,9.5,0,0,1,40.04-23.66l6.344-3.12C43.94-31.1,39.52-35.256,31.616-35.256c-10.14,0-18.2,7.28-18.2,17.94S21.476.624,31.616.624ZM45.864-4.888C49.088-1.612,53.872.624,60.528.624c9.36,0,13.884-4.784,13.884-11.128,0-7.7-7.28-9.412-13-10.712-4-.936-6.916-1.664-6.916-4,0-2.08,1.768-3.536,5.1-3.536a14.8,14.8,0,0,1,9.932,3.8l4.108-5.408C70.2-33.54,65.624-35.2,60.112-35.2c-8.164,0-13.156,4.68-13.156,10.452,0,7.748,7.28,9.308,12.948,10.608,4,.936,7.02,1.82,7.02,4.42,0,1.976-1.976,3.9-6.032,3.9A15.207,15.207,0,0,1,49.868-10.5ZM100.724,0h8.06L95.42-34.684H86.164L72.748,0H80.86l2.184-5.98h15.5ZM90.792-28.288l5.72,15.912H85.02ZM133.328,0h7.124V-34.684h-7.384V-12.22L117-34.684h-7.592V0h7.384V-23.3Z" transform="translate(-3.432 35.256)" fill="#ff2121"/>
</svg>
